<svg width="49" height="28" viewBox="0 0 49 28" fill="none" xmlns="http://www.w3.org/2000/svg">
<path d="M8.0625 27L0.9375 0.818181H8.28409L12.3409 18.4091H12.5795L16.8068 0.818181H24.017L28.3125 18.3068H28.5341L32.5227 0.818181H39.8523L32.7443 27H25.0568L20.5568 10.5341H20.233L15.733 27H8.0625ZM44.4077 27.4432C43.2827 27.4432 42.3168 27.0455 41.5099 26.25C40.7145 25.4432 40.3168 24.4773 40.3168 23.3523C40.3168 22.2386 40.7145 21.2841 41.5099 20.4886C42.3168 19.6932 43.2827 19.2955 44.4077 19.2955C45.4986 19.2955 46.4531 19.6932 47.2713 20.4886C48.0895 21.2841 48.4986 22.2386 48.4986 23.3523C48.4986 24.1023 48.3054 24.7898 47.919 25.4148C47.544 26.0284 47.0497 26.5227 46.4361 26.8977C45.8224 27.2614 45.1463 27.4432 44.4077 27.4432Z" fill="black"/>
</svg>
